<svg
                                            xmlns="http://www.w3.org/2000/svg" viewBox="0 0 36 36" width="36" height="36"
                                            preserveAspectRatio="xMidYMid meet"
                                            style="width: 100%; height: 100%; transform: translate3d(0px, 0px, 0px);">
                                            <defs>
                                                <clipPath id="__lottie_element_2">
                                                    <rect width="36" height="36" x="0" y="0"></rect>
                                                </clipPath>
                                            </defs>
                                            <g clip-path="url(#__lottie_element_2)">
                                                <g transform="matrix(1,0,0,1,0,0)" opacity="1" style="display: block;">
                                                    <g opacity="1" transform="matrix(1,0,0,1,17.95199966430664,17.875)">
                                                        <path fill="rgb(51,51,51)" fill-opacity="1"
                                                            d=" M4.479000091552734,13.145999908447266 C4.243000030517578,13.145999908447266 4.007999897003174,13.069000244140625 3.811000108718872,12.916999816894531 C3.811000108718872,12.916999816894531 -0.9990000128746033,9.177000045776367 -0.9990000128746033,9.177000045776367 C-0.9990000128746033,9.177000045776367 -2.7899999618530273,9.177000045776367 -2.7899999618530273,9.177000045776367 C-5.770999908447266,9.177000045776367 -8.574999809265137,8.015999794006348 -10.684000015258789,5.9079999923706055 C-12.791000366210938,3.7990000247955322 -13.95199966430664,0.996999979019165 -13.95199966430664,-1.9839999675750732 C-13.95199966430664,-4.966000080108643 -12.791000366210938,-7.769000053405762 -10.684000015258789,-9.876999855041504 C-8.576000213623047,-11.984999656677246 -5.770999908447266,-13.145999908447266 -2.7899999618530273,-13.145999908447266 C-2.7899999618530273,-13.145999908447266 2.7899999618530273,-13.145999908447266 2.7899999618530273,-13.145999908447266 C5.770999908447266,-13.145999908447266 8.574000358581543,-11.984999656677246 10.682000160217285,-9.876999855041504 C12.791000366210938,-7.769000053405762 13.95199966430664,-4.966000080108643 13.95199966430664,-1.9839999675750732 C13.95199966430664,0.5120000243186951 13.145999908447266,2.874000072479248 11.621000289916992,4.843999862670898 C10.09000015258789,6.818999767303467 7.968999862670898,8.211000442504883 5.580999851226807,8.826000213623047 C5.580999851226807,8.826000213623047 5.580999851226807,12.043999671936035 5.580999851226807,12.043999671936035 C5.580999851226807,12.465999603271484 5.3460001945495605,12.843000411987305 4.9679999351501465,13.031000137329102 C4.811999797821045,13.107999801635742 4.644999980926514,13.145999908447266 4.479000091552734,13.145999908447266z M-2.7899999618530273,-11.145999908447266 C-5.236999988555908,-11.145999908447266 -7.539000034332275,-10.192999839782715 -9.270000457763672,-8.463000297546387 C-10.99899959564209,-6.73199987411499 -11.95199966430664,-4.432000160217285 -11.95199966430664,-1.9839999675750732 C-11.95199966430664,0.46299999952316284 -10.99899959564209,2.763000011444092 -9.270000457763672,4.49399995803833 C-7.539000034332275,6.223999977111816 -5.236999988555908,7.177000045776367 -2.7899999618530273,7.177000045776367 C-2.7899999618530273,7.177000045776367 -0.31200000643730164,7.177000045776367 -0.31200000643730164,7.177000045776367 C-0.31200000643730164,7.177000045776367 3.5810000896453857,10.204999923706055 3.5810000896453857,10.204999923706055 C3.5810000896453857,10.204999923706055 3.5810000896453857,7.182000160217285 3.5810000896453857,7.182000160217285 C3.5810000896453857,7.182000160217285 4.406000137329102,7.035999774932861 4.406000137329102,7.035999774932861 C6.638999938964844,6.638999938964844 8.638999938964844,5.426000118255615 10.039999961853027,3.619999885559082 C11.291000366210938,2.002000093460083 11.95199966430664,0.06499999761581421 11.95199966430664,-1.9839999675750732 C11.95199966430664,-4.432000160217285 10.99899959564209,-6.73199987411499 9.267999649047852,-8.463000297546387 C7.538000106811523,-10.192999839782715 5.236999988555908,-11.145999908447266 2.7899999618530273,-11.145999908447266 C2.7899999618530273,-11.145999908447266 -2.7899999618530273,-11.145999908447266 -2.7899999618530273,-11.145999908447266z">
                                                        </path>
                                                    </g>
                                                    <g opacity="1" transform="matrix(1,0,0,1,18.27899932861328,15.979000091552734)"></g>
                                                </g>
                                                <g transform="matrix(0,0,0,0,12.734999656677246,16.014999389648438)" opacity="1"
                                                    style="display: none;">
                                                    <g opacity="1" transform="matrix(1,0,0,1,0,0)">
                                                        <path fill="rgb(1,1,1)" fill-opacity="1"
                                                            d=" M0,-26.140499114990234 C14.426941871643066,-26.140499114990234 26.140499114990234,-14.426941871643066 26.140499114990234,0 C26.140499114990234,14.426941871643066 14.426941871643066,26.140499114990234 0,26.140499114990234 C-14.426941871643066,26.140499114990234 -26.140499114990234,14.426941871643066 -26.140499114990234,0 C-26.140499114990234,-14.426941871643066 -14.426941871643066,-26.140499114990234 0,-26.140499114990234z">
                                                        </path>
                                                    </g>
                                                </g>
                                                <g style="display: none;" transform="matrix(0,0,0,0,18.110000610351562,16.014999389648438)"
                                                    opacity="1">
                                                    <g opacity="1" transform="matrix(1,0,0,1,0,0)">
                                                        <path fill="rgb(1,1,1)" fill-opacity="1"
                                                            d=" M0,-26.140499114990234 C14.426941871643066,-26.140499114990234 26.140499114990234,-14.426941871643066 26.140499114990234,0 C26.140499114990234,14.426941871643066 14.426941871643066,26.140499114990234 0,26.140499114990234 C-14.426941871643066,26.140499114990234 -26.140499114990234,14.426941871643066 -26.140499114990234,0 C-26.140499114990234,-14.426941871643066 -14.426941871643066,-26.140499114990234 0,-26.140499114990234z">
                                                        </path>
                                                    </g>
                                                </g>
                                                <g style="display: none;"
                                                    transform="matrix(0.0005940767005085945,0,0,0.0005940767005085945,23.485000610351562,16.014999389648438)"
                                                    opacity="1">
                                                    <g opacity="1" transform="matrix(1,0,0,1,0,0)">
                                                        <path fill="rgb(1,1,1)" fill-opacity="1"
                                                            d=" M0,-26.140499114990234 C14.426941871643066,-26.140499114990234 26.140499114990234,-14.426941871643066 26.140499114990234,0 C26.140499114990234,14.426941871643066 14.426941871643066,26.140499114990234 0,26.140499114990234 C-14.426941871643066,26.140499114990234 -26.140499114990234,14.426941871643066 -26.140499114990234,0 C-26.140499114990234,-14.426941871643066 -14.426941871643066,-26.140499114990234 0,-26.140499114990234z">
                                                        </path>
                                                    </g>
                                                </g>
                                                <g style="display: block;"
                                                    transform="matrix(0.049814388155937195,0,0,0.049814388155937195,12.734999656677246,16.014999389648438)"
                                                    opacity="1">
                                                    <g opacity="1" transform="matrix(1,0,0,1,0,0)">
                                                        <path fill="rgb(1,1,1)" fill-opacity="1"
                                                            d=" M0,-26.140499114990234 C14.426941871643066,-26.140499114990234 26.140499114990234,-14.426941871643066 26.140499114990234,0 C26.140499114990234,14.426941871643066 14.426941871643066,26.140499114990234 0,26.140499114990234 C-14.426941871643066,26.140499114990234 -26.140499114990234,14.426941871643066 -26.140499114990234,0 C-26.140499114990234,-14.426941871643066 -14.426941871643066,-26.140499114990234 0,-26.140499114990234z">
                                                        </path>
                                                    </g>
                                                </g>
                                                <g style="display: block;"
                                                    transform="matrix(0.007656135130673647,0,0,0.007656135130673647,18.110000610351562,16.014999389648438)"
                                                    opacity="1">
                                                    <g opacity="1" transform="matrix(1,0,0,1,0,0)">
                                                        <path fill="rgb(1,1,1)" fill-opacity="1"
                                                            d=" M0,-26.140499114990234 C14.426941871643066,-26.140499114990234 26.140499114990234,-14.426941871643066 26.140499114990234,0 C26.140499114990234,14.426941871643066 14.426941871643066,26.140499114990234 0,26.140499114990234 C-14.426941871643066,26.140499114990234 -26.140499114990234,14.426941871643066 -26.140499114990234,0 C-26.140499114990234,-14.426941871643066 -14.426941871643066,-26.140499114990234 0,-26.140499114990234z">
                                                        </path>
                                                    </g>
                                                </g>
                                                <g style="display: none;"
                                                    transform="matrix(0.0005507175228558481,0,0,0.0005507175228558481,23.485000610351562,16.014999389648438)"
                                                    opacity="1">
                                                    <g opacity="1" transform="matrix(1,0,0,1,0,0)">
                                                        <path fill="rgb(1,1,1)" fill-opacity="1"
                                                            d=" M0,-26.140499114990234 C14.426941871643066,-26.140499114990234 26.140499114990234,-14.426941871643066 26.140499114990234,0 C26.140499114990234,14.426941871643066 14.426941871643066,26.140499114990234 0,26.140499114990234 C-14.426941871643066,26.140499114990234 -26.140499114990234,14.426941871643066 -26.140499114990234,0 C-26.140499114990234,-14.426941871643066 -14.426941871643066,-26.140499114990234 0,-26.140499114990234z">
                                                        </path>
                                                    </g>
                                                </g>
                                                <g style="display: none;" transform="matrix(0,0,0,0,12.734999656677246,16.014999389648438)"
                                                    opacity="1">
                                                    <g opacity="1" transform="matrix(1,0,0,1,0,0)">
                                                        <path fill="rgb(1,1,1)" fill-opacity="1"
                                                            d=" M0,-26.140499114990234 C14.426941871643066,-26.140499114990234 26.140499114990234,-14.426941871643066 26.140499114990234,0 C26.140499114990234,14.426941871643066 14.426941871643066,26.140499114990234 0,26.140499114990234 C-14.426941871643066,26.140499114990234 -26.140499114990234,14.426941871643066 -26.140499114990234,0 C-26.140499114990234,-14.426941871643066 -14.426941871643066,-26.140499114990234 0,-26.140499114990234z">
                                                        </path>
                                                    </g>
                                                </g>
                                                <g style="display: none;" transform="matrix(0,0,0,0,18.110000610351562,16.014999389648438)"
                                                    opacity="1">
                                                    <g opacity="1" transform="matrix(1,0,0,1,0,0)">
                                                        <path fill="rgb(1,1,1)" fill-opacity="1"
                                                            d=" M0,-26.140499114990234 C14.426941871643066,-26.140499114990234 26.140499114990234,-14.426941871643066 26.140499114990234,0 C26.140499114990234,14.426941871643066 14.426941871643066,26.140499114990234 0,26.140499114990234 C-14.426941871643066,26.140499114990234 -26.140499114990234,14.426941871643066 -26.140499114990234,0 C-26.140499114990234,-14.426941871643066 -14.426941871643066,-26.140499114990234 0,-26.140499114990234z">
                                                        </path>
                                                    </g>
                                                </g>
                                                <g style="display: none;"
                                                    transform="matrix(0.0004750502994284034,0,0,0.0004750502994284034,23.485000610351562,16.014999389648438)"
                                                    opacity="1">
                                                    <g opacity="1" transform="matrix(1,0,0,1,0,0)">
                                                        <path fill="rgb(1,1,1)" fill-opacity="1"
                                                            d=" M0,-26.140499114990234 C14.426941871643066,-26.140499114990234 26.140499114990234,-14.426941871643066 26.140499114990234,0 C26.140499114990234,14.426941871643066 14.426941871643066,26.140499114990234 0,26.140499114990234 C-14.426941871643066,26.140499114990234 -26.140499114990234,14.426941871643066 -26.140499114990234,0 C-26.140499114990234,-14.426941871643066 -14.426941871643066,-26.140499114990234 0,-26.140499114990234z">
                                                        </path>
                                                    </g>
                                                </g>
                                                <g style="display: none;"
                                                    transform="matrix(0.07000000029802322,0,0,0.07000000029802322,18.32349967956543,15.041499137878418)"
                                                    opacity="1">
                                                    <g opacity="1" transform="matrix(2,0,0,2,-5.616000175476074,79.08499908447266)">
                                                        <path fill="rgb(0,0,0)" fill-opacity="1"
                                                            d=" M5,0 C5,2.759999990463257 2.759999990463257,5 0,5 C-2.759999990463257,5 -5,2.759999990463257 -5,0 C-5,-2.759999990463257 -2.759999990463257,-5 0,-5 C2.759999990463257,-5 5,-2.759999990463257 5,0">
                                                        </path>
                                                    </g>
                                                    <g opacity="1" transform="matrix(2,0,0,2,0,0)">
                                                        <path stroke-linecap="round" stroke-linejoin="round" fill-opacity="0"
                                                            stroke="rgb(0,0,0)" stroke-opacity="1" stroke-width="8"
                                                            d=" M-16.989999771118164,-9.710000038146973 C-17.1200008392334,-12.649999618530273 -16,-15.5600004196167 -14.100000381469727,-17.829999923706055 C-12.180000305175781,-20.100000381469727 -9.59000015258789,-21.440000534057617 -6.78000020980835,-22.309999465942383 C-3.0299999713897705,-23.469999313354492 1.0099999904632568,-23.8799991607666 4.849999904632568,-23.110000610351562 C7.989999771118164,-22.479999542236328 11.010000228881836,-21.030000686645508 13.220000267028809,-18.770000457763672 C17.360000610351562,-14.529999732971191 18.1200008392334,-7.630000114440918 15.40999984741211,-2.4000000953674316 C13.649999618530273,0.9900000095367432 10.699999809265137,3.619999885559082 7.650000095367432,5.96999979019165 C5.650000095367432,7.510000228881836 3.5799999237060547,8.970000267028809 1.8300000429153442,10.770000457763672 C-1.409999966621399,14.09000015258789 -2.940000057220459,18.969999313354492 -2.880000114440918,23.5">
                                                        </path>
                                                    </g>
                                                </g>
                                            </g>
                                        </svg>